<mxfile host="app.diagrams.net" modified="2024-01-26T06:20:24.655Z" agent="Mozilla/5.0 (X11; Ubuntu; Linux x86_64; rv:121.0) Gecko/20100101 Firefox/121.0" version="23.0.1" etag="CgFeiT-lT_rhzXSoqnja" type="github">
  <diagram name="Page-1" id="zHDBDDsMhPQAc9DJe7pO">
    <mxGraphModel>
      <root>
        <mxCell id="0" />
        <mxCell id="1" parent="0" />
      </root>
    </mxGraphModel>
  </diagram>
</mxfile>
